<?xml version="1.0" encoding="iso-8859-1"?>
<!-- Uploaded to: SVG Repo, www.svgrepo.com, Generator: SVG Repo Mixer Tools -->
<svg version="1.1" id="Layer_1" xmlns="http://www.w3.org/2000/svg" xmlns:xlink="http://www.w3.org/1999/xlink" 
	 viewBox="0 0 512 512" xml:space="preserve">
<path style="fill:#EFF2FA;" d="M485.517,441.379H26.483c-9.751,0-17.655-7.904-17.655-17.655V88.276h494.345v335.448
	C503.172,433.475,495.268,441.379,485.517,441.379z"/>
<g>
	<path style="fill:#D7DEED;" d="M256,220.69c-82.748,0-150.069,67.316-150.069,150.069c0,25.523,6.442,49.557,17.727,70.621h264.683
		c11.286-21.064,17.728-45.098,17.728-70.621C406.069,288.006,338.748,220.69,256,220.69z"/>
	<rect x="8.828" y="88.276" style="fill:#D7DEED;" width="494.345" height="35.31"/>
</g>
<path style="fill:#FF6464;" d="M503.172,105.931H8.828c-4.875,0-8.828-3.953-8.828-8.828V44.138c0-4.875,3.953-8.828,8.828-8.828
	h494.345c4.875,0,8.828,3.953,8.828,8.828v52.966C512,101.978,508.047,105.931,503.172,105.931z"/>
<path style="fill:#D2555A;" d="M503.172,105.931H8.828c-4.875,0-8.828-3.953-8.828-8.828l0,0c0-4.875,3.953-8.828,8.828-8.828
	h494.345c4.875,0,8.828,3.953,8.828,8.828l0,0C512,101.978,508.047,105.931,503.172,105.931z"/>
<g>
	<path style="fill:#C7CFE2;" d="M432.552,61.793c-4.875,0-8.828-3.948-8.828-8.828v-35.31c0-4.879,3.953-8.828,8.828-8.828
		s8.828,3.948,8.828,8.828v35.31C441.379,57.845,437.427,61.793,432.552,61.793z"/>
	<path style="fill:#C7CFE2;" d="M476.69,61.793c-4.875,0-8.828-3.948-8.828-8.828v-35.31c0-4.879,3.953-8.828,8.828-8.828
		c4.875,0,8.828,3.948,8.828,8.828v35.31C485.517,57.845,481.565,61.793,476.69,61.793z"/>
	<path style="fill:#C7CFE2;" d="M35.31,61.793c-4.875,0-8.828-3.948-8.828-8.828v-35.31c0-4.879,3.953-8.828,8.828-8.828
		s8.828,3.948,8.828,8.828v35.31C44.138,57.845,40.185,61.793,35.31,61.793z"/>
	<path style="fill:#C7CFE2;" d="M388.414,61.793c-4.875,0-8.828-3.948-8.828-8.828v-35.31c0-4.879,3.953-8.828,8.828-8.828
		s8.828,3.948,8.828,8.828v35.31C397.241,57.845,393.289,61.793,388.414,61.793z"/>
	<path style="fill:#C7CFE2;" d="M344.276,61.793c-4.875,0-8.828-3.948-8.828-8.828v-35.31c0-4.879,3.953-8.828,8.828-8.828
		c4.875,0,8.828,3.948,8.828,8.828v35.31C353.103,57.845,349.151,61.793,344.276,61.793z"/>
	<path style="fill:#C7CFE2;" d="M300.138,61.793c-4.875,0-8.828-3.948-8.828-8.828v-35.31c0-4.879,3.953-8.828,8.828-8.828
		s8.828,3.948,8.828,8.828v35.31C308.966,57.845,305.013,61.793,300.138,61.793z"/>
	<path style="fill:#C7CFE2;" d="M256,61.793c-4.875,0-8.828-3.948-8.828-8.828v-35.31c0-4.879,3.953-8.828,8.828-8.828
		s8.828,3.948,8.828,8.828v35.31C264.828,57.845,260.875,61.793,256,61.793z"/>
	<path style="fill:#C7CFE2;" d="M211.862,61.793c-4.875,0-8.828-3.948-8.828-8.828v-35.31c0-4.879,3.953-8.828,8.828-8.828
		c4.875,0,8.828,3.948,8.828,8.828v35.31C220.69,57.845,216.737,61.793,211.862,61.793z"/>
	<path style="fill:#C7CFE2;" d="M167.724,61.793c-4.875,0-8.828-3.948-8.828-8.828v-35.31c0-4.879,3.953-8.828,8.828-8.828
		s8.828,3.948,8.828,8.828v35.31C176.552,57.845,172.599,61.793,167.724,61.793z"/>
	<path style="fill:#C7CFE2;" d="M123.586,61.793c-4.875,0-8.828-3.948-8.828-8.828v-35.31c0-4.879,3.953-8.828,8.828-8.828
		c4.875,0,8.828,3.948,8.828,8.828v35.31C132.414,57.845,128.461,61.793,123.586,61.793z"/>
	<path style="fill:#C7CFE2;" d="M79.448,61.793c-4.875,0-8.828-3.948-8.828-8.828v-35.31c0-4.879,3.953-8.828,8.828-8.828
		c4.875,0,8.828,3.948,8.828,8.828v35.31C88.276,57.845,84.323,61.793,79.448,61.793z"/>
</g>
<g>
	<path style="fill:#D7DEED;" d="M97.103,229.517h-35.31c-4.875,0-8.828-3.953-8.828-8.828v-17.655c0-4.875,3.953-8.828,8.828-8.828
		h35.31c4.875,0,8.828,3.953,8.828,8.828v17.655C105.931,225.565,101.978,229.517,97.103,229.517z"/>
	<path style="fill:#D7DEED;" d="M97.103,335.448h-35.31c-4.875,0-8.828-3.953-8.828-8.828v-17.655c0-4.875,3.953-8.828,8.828-8.828
		h35.31c4.875,0,8.828,3.953,8.828,8.828v17.655C105.931,331.496,101.978,335.448,97.103,335.448z"/>
	<path style="fill:#D7DEED;" d="M97.103,282.483h-35.31c-4.875,0-8.828-3.953-8.828-8.828V256c0-4.875,3.953-8.828,8.828-8.828
		h35.31c4.875,0,8.828,3.953,8.828,8.828v17.655C105.931,278.53,101.978,282.483,97.103,282.483z"/>
	<path style="fill:#D7DEED;" d="M97.103,388.414h-35.31c-4.875,0-8.828-3.953-8.828-8.828v-17.655c0-4.875,3.953-8.828,8.828-8.828
		h35.31c4.875,0,8.828,3.953,8.828,8.828v17.655C105.931,384.461,101.978,388.414,97.103,388.414z"/>
	<path style="fill:#D7DEED;" d="M167.724,229.517h-35.31c-4.875,0-8.828-3.953-8.828-8.828v-17.655c0-4.875,3.953-8.828,8.828-8.828
		h35.31c4.875,0,8.828,3.953,8.828,8.828v17.655C176.552,225.565,172.599,229.517,167.724,229.517z"/>
	<path style="fill:#D7DEED;" d="M167.724,282.483h-35.31c-4.875,0-8.828-3.953-8.828-8.828V256c0-4.875,3.953-8.828,8.828-8.828
		h35.31c4.875,0,8.828,3.953,8.828,8.828v17.655C176.552,278.53,172.599,282.483,167.724,282.483z"/>
	<path style="fill:#D7DEED;" d="M238.345,229.517h-35.31c-4.875,0-8.828-3.953-8.828-8.828v-17.655c0-4.875,3.953-8.828,8.828-8.828
		h35.31c4.875,0,8.828,3.953,8.828,8.828v17.655C247.172,225.565,243.22,229.517,238.345,229.517z"/>
	<path style="fill:#D7DEED;" d="M308.966,229.517h-35.31c-4.875,0-8.828-3.953-8.828-8.828v-17.655c0-4.875,3.953-8.828,8.828-8.828
		h35.31c4.875,0,8.828,3.953,8.828,8.828v17.655C317.793,225.565,313.841,229.517,308.966,229.517z"/>
	<path style="fill:#D7DEED;" d="M379.586,229.517h-35.31c-4.875,0-8.828-3.953-8.828-8.828v-17.655c0-4.875,3.953-8.828,8.828-8.828
		h35.31c4.875,0,8.828,3.953,8.828,8.828v17.655C388.414,225.565,384.461,229.517,379.586,229.517z"/>
	<path style="fill:#D7DEED;" d="M379.586,282.483h-35.31c-4.875,0-8.828-3.953-8.828-8.828V256c0-4.875,3.953-8.828,8.828-8.828
		h35.31c4.875,0,8.828,3.953,8.828,8.828v17.655C388.414,278.53,384.461,282.483,379.586,282.483z"/>
	<path style="fill:#D7DEED;" d="M450.207,229.517h-35.31c-4.875,0-8.828-3.953-8.828-8.828v-17.655c0-4.875,3.953-8.828,8.828-8.828
		h35.31c4.875,0,8.828,3.953,8.828,8.828v17.655C459.034,225.565,455.082,229.517,450.207,229.517z"/>
	<path style="fill:#D7DEED;" d="M450.207,335.448h-35.31c-4.875,0-8.828-3.953-8.828-8.828v-17.655c0-4.875,3.953-8.828,8.828-8.828
		h35.31c4.875,0,8.828,3.953,8.828,8.828v17.655C459.034,331.496,455.082,335.448,450.207,335.448z"/>
	<path style="fill:#D7DEED;" d="M450.207,282.483h-35.31c-4.875,0-8.828-3.953-8.828-8.828V256c0-4.875,3.953-8.828,8.828-8.828
		h35.31c4.875,0,8.828,3.953,8.828,8.828v17.655C459.034,278.53,455.082,282.483,450.207,282.483z"/>
	<path style="fill:#D7DEED;" d="M450.207,388.414h-35.31c-4.875,0-8.828-3.953-8.828-8.828v-17.655c0-4.875,3.953-8.828,8.828-8.828
		h35.31c4.875,0,8.828,3.953,8.828,8.828v17.655C459.034,384.461,455.082,388.414,450.207,388.414z"/>
</g>
<g>
	<path style="fill:#C7CFE2;" d="M97.103,176.552h-35.31c-4.875,0-8.828-3.953-8.828-8.828l0,0c0-4.875,3.953-8.828,8.828-8.828
		h35.31c4.875,0,8.828,3.953,8.828,8.828l0,0C105.931,172.599,101.978,176.552,97.103,176.552z"/>
	<path style="fill:#C7CFE2;" d="M167.724,176.552h-35.31c-4.875,0-8.828-3.953-8.828-8.828l0,0c0-4.875,3.953-8.828,8.828-8.828
		h35.31c4.875,0,8.828,3.953,8.828,8.828l0,0C176.552,172.599,172.599,176.552,167.724,176.552z"/>
	<path style="fill:#C7CFE2;" d="M238.345,176.552h-35.31c-4.875,0-8.828-3.953-8.828-8.828l0,0c0-4.875,3.953-8.828,8.828-8.828
		h35.31c4.875,0,8.828,3.953,8.828,8.828l0,0C247.172,172.599,243.22,176.552,238.345,176.552z"/>
	<path style="fill:#C7CFE2;" d="M308.966,176.552h-35.31c-4.875,0-8.828-3.953-8.828-8.828l0,0c0-4.875,3.953-8.828,8.828-8.828
		h35.31c4.875,0,8.828,3.953,8.828,8.828l0,0C317.793,172.599,313.841,176.552,308.966,176.552z"/>
</g>
<g>
	<path style="fill:#FF6464;" d="M379.586,176.552h-35.31c-4.875,0-8.828-3.953-8.828-8.828l0,0c0-4.875,3.953-8.828,8.828-8.828
		h35.31c4.875,0,8.828,3.953,8.828,8.828l0,0C388.414,172.599,384.461,176.552,379.586,176.552z"/>
	<path style="fill:#FF6464;" d="M450.207,176.552h-35.31c-4.875,0-8.828-3.953-8.828-8.828l0,0c0-4.875,3.953-8.828,8.828-8.828
		h35.31c4.875,0,8.828,3.953,8.828,8.828l0,0C459.034,172.599,455.082,176.552,450.207,176.552z"/>
	<circle style="fill:#FF6464;" cx="361.931" cy="211.862" r="8.828"/>
	<circle style="fill:#FF6464;" cx="432.552" cy="211.862" r="8.828"/>
	<circle style="fill:#FF6464;" cx="361.931" cy="264.828" r="8.828"/>
	<circle style="fill:#FF6464;" cx="432.552" cy="264.828" r="8.828"/>
	<circle style="fill:#FF6464;" cx="432.552" cy="317.793" r="8.828"/>
	<circle style="fill:#FF6464;" cx="432.552" cy="370.759" r="8.828"/>
</g>
<circle style="fill:#FFF0E6;" cx="256" cy="370.759" r="123.586"/>
<circle style="fill:#FFE2C7;" cx="256" cy="370.759" r="61.793"/>
<path style="fill:#707487;" d="M233.931,401.655c-2.259,0-4.518-0.862-6.241-2.586c-3.448-3.448-3.448-9.035,0-12.483l83.862-83.862
	c3.448-3.448,9.035-3.448,12.483,0s3.448,9.035,0,12.483l-83.862,83.862C238.449,400.793,236.19,401.655,233.931,401.655z"/>
<path style="fill:#464655;" d="M317.793,379.586h-88.276c-4.875,0-8.828-3.948-8.828-8.828c0-4.879,3.953-8.828,8.828-8.828h88.276
	c4.875,0,8.828,3.948,8.828,8.828C326.621,375.638,322.668,379.586,317.793,379.586z"/>
<circle style="fill:#5B5D6E;" cx="256" cy="370.759" r="17.655"/>
<path style="fill:#FFDCB9;" d="M256,503.172c-73.013,0-132.414-59.396-132.414-132.414S182.987,238.345,256,238.345
	s132.414,59.396,132.414,132.414S329.013,503.172,256,503.172z M256,256c-63.281,0-114.759,51.482-114.759,114.759
	S192.719,485.517,256,485.517s114.759-51.482,114.759-114.759S319.281,256,256,256z"/>
<g>
	<path style="fill:#E1BE91;" d="M158.897,361.931h-17.655c-4.875,0-8.828,3.953-8.828,8.828l0,0c0,4.875,3.953,8.828,8.828,8.828
		h17.655c4.875,0,8.828-3.948,8.828-8.828C167.724,365.879,163.772,361.931,158.897,361.931z"/>
	<path style="fill:#E1BE91;" d="M370.759,361.931h-17.655c-4.875,0-8.828,3.953-8.828,8.828l0,0c0,4.875,3.953,8.828,8.828,8.828
		h17.655c4.875,0,8.828-3.948,8.828-8.828C379.586,365.879,375.634,361.931,370.759,361.931z"/>
	<path style="fill:#E1BE91;" d="M264.828,273.655V256c0-4.875-3.953-8.828-8.828-8.828l0,0c-4.875,0-8.828,3.953-8.828,8.828v17.655
		c0,4.875,3.948,8.828,8.828,8.828C260.879,282.483,264.828,278.53,264.828,273.655z"/>
	<path style="fill:#E1BE91;" d="M264.828,485.517v-17.655c0-4.875-3.953-8.828-8.828-8.828l0,0c-4.875,0-8.828,3.953-8.828,8.828
		v17.655c0,4.875,3.948,8.828,8.828,8.828C260.879,494.345,264.828,490.392,264.828,485.517z"/>
</g>
</svg>