<?xml version="1.0" standalone="no"?>
<!DOCTYPE svg PUBLIC "-//W3C//DTD SVG 20010904//EN"
 "http://www.w3.org/TR/2001/REC-SVG-20010904/DTD/svg10.dtd">
<svg version="1.0" xmlns="http://www.w3.org/2000/svg"
 width="300.000000pt" height="300.000000pt" viewBox="0 0 300.000000 300.000000"
 preserveAspectRatio="xMidYMid meet">

<g transform="translate(0.000000,300.000000) scale(0.100000,-0.100000)"
fill="#000000" stroke="none">
<path d="M1273 2705 c-223 -40 -432 -152 -599 -319 -149 -149 -245 -316 -302
-524 -24 -88 -26 -114 -26 -282 0 -168 2 -194 26 -282 59 -216 153 -377 312
-533 216 -211 449 -311 751 -322 178 -6 283 9 431 62 172 61 313 154 444 291
207 217 310 478 310 784 0 310 -103 567 -314 788 -173 180 -386 296 -624 337
-102 18 -310 18 -409 0z m521 -892 c93 -269 197 -570 232 -670 l63 -183 -143
0 -143 0 -42 135 -43 135 -252 0 -252 0 -44 -135 -44 -135 -138 0 c-87 0 -138
4 -138 10 0 8 420 1199 461 1308 8 21 12 22 162 22 l153 0 168 -487z"/>
<path d="M1377 1716 l-85 -256 175 0 c136 0 174 3 171 13 -3 6 -40 118 -83
247 -43 129 -81 239 -85 243 -4 5 -46 -106 -93 -247z"/>
</g>
</svg>
